<svg width="100" height="100" viewBox="0 0 100 100" fill="none" xmlns="http://www.w3.org/2000/svg">
<rect width="100" height="100" fill="white"/>
<rect width="100" height="100" fill="#0A0A0A"/>
<path d="M35.45 94.6C32.4167 94.6 29.7667 94.1667 27.5 93.3C25.2667 92.4 23.2 90.9833 21.3 89.05L27.55 82.8C28.85 84.0333 30.2167 84.9833 31.65 85.65C33.0833 86.2833 34.6167 86.6 36.25 86.6C37.6167 86.6 38.65 86.4 39.35 86C40.05 85.5667 40.4 84.9833 40.4 84.25C40.4 83.5167 40.1 82.9167 39.5 82.45C38.9 81.95 38.1 81.5167 37.1 81.15C36.1333 80.75 35.05 80.35 33.85 79.95C32.6833 79.55 31.5167 79.0667 30.35 78.5C29.1833 77.9333 28.1 77.25 27.1 76.45C26.1333 75.6167 25.35 74.6 24.75 73.4C24.15 72.1667 23.85 70.6667 23.85 68.9C23.85 66.6 24.4 64.6167 25.5 62.95C26.6 61.2833 28.15 60.0167 30.15 59.15C32.15 58.25 34.5 57.8 37.2 57.8C39.8667 57.8 42.3333 58.2333 44.6 59.1C46.9 59.9333 48.8 61.1333 50.3 62.7L44 68.95C42.9 67.8833 41.8 67.1 40.7 66.6C39.6 66.0667 38.4 65.8 37.1 65.8C36.0667 65.8 35.2333 65.9667 34.6 66.3C34 66.6333 33.7 67.1333 33.7 67.8C33.7 68.5 34 69.0833 34.6 69.55C35.2 69.9833 35.9833 70.3833 36.95 70.75C37.95 71.1167 39.0333 71.5 40.2 71.9C41.4 72.3 42.5833 72.7833 43.75 73.35C44.9167 73.8833 45.9833 74.5833 46.95 75.45C47.95 76.2833 48.75 77.3333 49.35 78.6C49.95 79.8667 50.25 81.4 50.25 83.2C50.25 86.8333 48.95 89.65 46.35 91.65C43.7833 93.6167 40.15 94.6 35.45 94.6Z" fill="white"/>
<path d="M54.4188 94V58.4H61.6688L74.9188 77.8H71.7688L84.9688 58.4H92.2188V94H82.3188V74.8L83.7688 75.2L76.5188 85.6H70.1188L62.9188 75.2L64.3188 74.8V94H54.4188Z" fill="white"/>
</svg>
